<svg width="2326" height="480" viewBox="0 0 2326 480" fill="none" xmlns="http://www.w3.org/2000/svg">
<path d="M499.773 378.333L418.236 101.268H453.858L466.526 145.599L486.315 216.052C498.583 258.008 509.665 296.797 519.165 333.211H521.541C530.644 298.776 541.727 259.987 554.392 216.844L575.371 142.432L586.85 101.268H624.056L635.535 142.432L656.51 216.844C669.179 259.987 679.865 298.776 689.364 333.211H691.736C702.029 295.214 715.885 245.342 733.694 183.2L744.38 145.599L757.045 101.268H792.668L711.133 378.333H671.158L606.639 152.327H604.267L539.748 378.333H499.773ZM806.528 284.923C819.986 274.631 839.378 269.09 864.713 269.09C885.295 269.09 900.336 268.694 910.625 267.507C920.522 266.716 928.439 263.945 933.98 259.195C939.521 254.841 942.686 247.717 942.686 237.426C942.686 226.739 937.934 217.24 928.439 208.532C918.939 199.824 903.898 195.47 883.316 195.47C863.13 195.47 847.692 201.011 837.404 212.094C826.713 223.177 820.383 236.238 818.801 252.071H787.136C787.136 237.03 791.09 222.781 799.007 210.115C806.925 197.449 818.007 187.158 832.651 179.242C847.296 171.722 864.713 167.764 884.501 167.764C915.769 167.764 938.728 175.284 952.975 189.533C967.227 204.178 974.351 223.177 974.351 246.134V378.333H944.269L942.686 310.254H941.104C938.331 335.982 928.831 354.981 912.604 366.855C896.377 378.729 877.775 384.666 856.399 384.666C835.027 384.666 818.404 379.916 805.739 370.021C793.069 360.126 786.739 346.273 786.739 328.066C786.739 309.858 793.069 295.214 806.528 284.923ZM864.316 357.751C879.357 357.751 893.212 354.585 905.084 347.46C916.96 340.731 926.46 332.024 932.79 320.941C939.125 310.254 942.686 299.172 942.686 287.693V256.82H941.104C939.521 264.737 936.352 271.07 931.604 275.423C926.852 280.173 918.939 283.735 907.857 286.11C896.774 288.485 880.543 290.068 859.961 290.464C847.692 291.256 838.193 294.422 831.069 300.359C823.945 306.296 820.383 314.213 820.383 323.712C820.383 346.668 835.027 357.751 864.316 357.751ZM1073.72 378.333L990.209 174.097H1023.85L1052.35 246.925C1062.24 272.257 1074.91 303.13 1089.95 340.336H1091.53C1106.57 303.13 1118.85 272.257 1129.14 246.925L1157.64 174.097H1191.28L1107.76 378.333H1073.72ZM1392.07 281.36H1226.63C1226.63 305.504 1233.35 324.107 1246.41 337.169C1259.08 350.627 1275.7 356.96 1296.29 356.96C1312.52 356.96 1325.97 352.606 1337.06 343.106C1347.74 333.607 1354.87 321.733 1358.03 306.692H1390.49C1387.32 330.44 1377.43 349.043 1360.01 363.292C1342.6 377.541 1321.62 384.666 1296.29 384.666C1265.41 384.666 1240.87 375.563 1222.67 356.96C1204.06 338.357 1194.96 311.046 1194.96 275.423C1194.96 253.258 1198.92 233.864 1207.63 217.636C1215.94 201.407 1227.81 189.137 1242.85 180.43C1257.89 172.118 1275.7 167.764 1295.5 167.764C1314.1 167.764 1330.72 172.118 1345.76 180.826C1360.41 189.533 1371.89 201.407 1379.8 216.448C1387.72 231.489 1392.07 248.113 1392.07 266.32V281.36ZM1247.21 212.094C1234.54 223.177 1227.81 239.009 1226.63 259.195H1359.61C1358.03 239.801 1351.7 224.364 1340.22 212.886C1328.74 201.407 1313.31 195.47 1294.31 195.47C1275.31 195.47 1259.48 201.011 1247.21 212.094ZM1588.93 101.268H1620.6V378.333H1590.51L1588.93 319.754H1587.35C1582.99 339.544 1573.89 355.772 1560.43 367.646C1546.58 379.521 1530.35 385.458 1512.14 385.458C1493.94 385.458 1477.71 381.104 1463.85 372C1449.61 362.897 1438.92 350.231 1431.4 333.607C1423.48 317.379 1419.92 298.38 1419.92 276.611C1419.92 255.237 1423.48 236.238 1431.4 219.614C1438.92 203.386 1449.61 190.72 1463.85 181.617C1477.71 172.513 1493.94 167.764 1512.14 167.764C1530.35 167.764 1546.58 174.097 1560.43 185.971C1573.89 197.845 1582.99 213.677 1587.35 233.468H1588.93V101.268ZM1556.08 347.46C1566.37 341.127 1574.29 332.815 1580.22 322.128C1585.77 311.442 1588.93 299.567 1588.93 286.901V266.32C1588.93 253.654 1585.77 242.176 1580.22 231.489C1574.29 220.802 1566.37 212.094 1556.08 205.761C1545.79 199.429 1533.92 196.262 1520.46 196.262C1499.87 196.262 1483.25 203.782 1470.59 218.427C1457.92 233.072 1451.98 252.467 1451.98 276.611C1451.98 301.151 1457.92 320.545 1470.59 335.19C1483.25 349.835 1499.87 356.96 1520.46 356.96C1533.92 356.96 1545.79 353.793 1556.08 347.46ZM1675.84 284.923C1689.29 274.631 1708.69 269.09 1734.02 269.09C1754.6 269.09 1769.64 268.694 1779.93 267.507C1789.83 266.716 1797.74 263.945 1803.28 259.195C1808.83 254.841 1811.99 247.717 1811.99 237.426C1811.99 226.739 1807.24 217.24 1797.74 208.532C1788.24 199.824 1773.2 195.47 1752.62 195.47C1732.43 195.47 1717 201.011 1706.71 212.094C1696.02 223.177 1689.69 236.238 1688.1 252.071H1656.44C1656.44 237.03 1660.4 222.781 1668.32 210.115C1676.23 197.449 1687.32 187.158 1701.96 179.242C1716.6 171.722 1734.02 167.764 1753.81 167.764C1785.08 167.764 1808.04 175.284 1822.28 189.533C1836.53 204.178 1843.65 223.177 1843.65 246.134V378.333H1813.58L1811.99 310.254H1810.41C1807.64 335.982 1798.14 354.981 1781.91 366.855C1765.68 378.729 1747.08 384.666 1725.71 384.666C1704.33 384.666 1687.71 379.916 1675.04 370.021C1662.38 360.126 1656.04 346.273 1656.04 328.066C1656.04 309.858 1662.38 295.214 1675.84 284.923ZM1733.62 357.751C1748.67 357.751 1762.52 354.585 1774.39 347.46C1786.26 340.731 1795.76 332.024 1802.1 320.941C1808.43 310.254 1811.99 299.172 1811.99 287.693V256.82H1810.41C1808.83 264.737 1805.66 271.07 1800.91 275.423C1796.16 280.173 1788.24 283.735 1777.16 286.11C1766.08 288.485 1749.85 290.068 1729.27 290.464C1717 291.256 1707.5 294.422 1700.37 300.359C1693.25 306.296 1689.69 314.213 1689.69 323.712C1689.69 346.668 1704.33 357.751 1733.62 357.751ZM1903.21 366.063C1886.58 353.793 1877.88 336.378 1876.69 313.421H1909.14C1910.33 327.67 1916.27 338.357 1926.96 345.877C1937.64 353.397 1952.29 356.96 1970.89 356.96C1986.72 356.96 1999.39 354.189 2008.89 348.252C2018.39 342.315 2023.14 334.003 2023.14 323.712C2023.14 316.587 2020.76 310.65 2016.41 306.296C2012.05 302.338 2004.93 298.776 1994.64 296.401L1934.48 282.548C1917.85 278.986 1905.18 272.653 1895.69 263.549C1886.19 254.841 1881.83 242.967 1881.83 228.718C1881.83 210.115 1888.96 195.47 1904 184.388C1919.04 173.305 1939.23 167.764 1965.35 167.764C1992.27 167.764 2014.03 174.493 2029.86 187.158C2045.7 199.824 2053.62 217.24 2053.62 239.009H2021.16C2021.16 225.551 2016.01 215.261 2006.12 207.344C1995.83 199.428 1982.37 195.47 1965.35 195.47C1949.52 195.47 1936.85 198.637 1927.35 204.178C1917.85 210.115 1913.5 218.031 1913.5 227.531C1913.5 234.259 1915.88 240.197 1921.02 244.946C1926.16 249.696 1933.29 253.258 1942 255.237L2000.97 268.694C2019.97 273.444 2033.82 279.777 2042.53 288.089C2051.24 296.401 2055.6 307.88 2055.6 322.524C2055.6 341.523 2047.68 356.96 2032.64 368.042C2017.2 379.125 1996.62 384.666 1970.89 384.666C1942 384.666 1919.44 378.729 1903.21 366.063ZM2247.6 188.346C2261.06 202.199 2267.79 220.406 2267.79 242.571V378.333H2236.13V252.862C2236.13 236.238 2230.98 222.781 2221.09 212.49C2210.8 202.199 2197.73 197.053 2181.51 197.053C2162.51 197.053 2147.47 204.178 2136.38 218.031C2124.9 232.28 2119.36 250.487 2119.36 273.048V378.333H2087.31V101.268H2119.36V233.468H2121.74C2124.12 213.677 2132.03 197.845 2145.49 185.971C2158.55 174.097 2174.78 167.764 2194.17 167.764C2216.34 167.764 2234.15 174.889 2247.6 188.346Z" fill="white"/>
<path d="M266.519 239.286L267.951 237.853L266.518 236.42L200.753 170.677C182.672 152.603 166.238 135.951 154.327 123.684C148.37 117.55 143.551 112.518 140.225 108.957C138.56 107.173 137.281 105.772 136.424 104.789C136.224 104.56 136.051 104.358 135.905 104.184C136.04 103.987 136.206 103.758 136.406 103.494C137.149 102.515 138.239 101.219 139.59 99.6989C142.285 96.6672 145.922 92.8511 149.653 89.1051C153.386 85.3591 157.187 81.7082 160.207 79.0036C161.721 77.6471 163.013 76.5532 163.987 75.8081C164.242 75.6134 164.465 75.4505 164.656 75.3176C164.912 75.5354 165.223 75.8062 165.589 76.132C166.791 77.2019 168.511 78.7923 170.698 80.8561C175.07 84.9803 181.265 90.952 188.831 98.3295C203.962 113.083 224.551 133.436 246.948 155.827C269.345 178.219 289.703 198.802 304.46 213.926C311.84 221.489 317.813 227.681 321.938 232.048C324.003 234.234 325.594 235.952 326.664 237.152C326.913 237.431 327.13 237.678 327.315 237.893C327.09 238.156 326.82 238.466 326.503 238.823C325.334 240.134 323.606 241.997 321.389 244.339C316.958 249.02 310.617 255.568 302.991 263.359C287.74 278.939 267.375 299.464 246.923 319.909C226.472 340.353 205.938 360.711 190.353 375.955C182.559 383.579 176.009 389.917 171.326 394.347C168.983 396.564 167.12 398.291 165.807 399.459C165.353 399.863 164.975 400.19 164.673 400.444C164.479 400.309 164.252 400.144 163.991 399.944C163.017 399.199 161.726 398.105 160.212 396.75C157.192 394.045 153.39 390.395 149.658 386.651C145.925 382.907 142.287 379.093 139.591 376.064C138.239 374.545 137.148 373.25 136.405 372.273C136.207 372.012 136.042 371.785 135.907 371.59C136.053 371.416 136.225 371.217 136.423 370.989C137.281 370.007 138.559 368.606 140.225 366.823C143.551 363.262 148.37 358.229 154.327 352.092C166.238 339.822 182.673 323.161 200.753 305.074L266.519 239.286ZM17.0752 221.641L31.2839 207.348L46.5853 222.571L61.8898 237.796L46.6693 253.096L31.4462 268.399L17.1559 254.191C12.8524 249.914 8.94998 245.808 6.13296 242.644C4.72122 241.059 3.60223 239.733 2.84591 238.752C2.60691 238.442 2.41474 238.18 2.26587 237.964C2.41445 237.747 2.60643 237.483 2.84532 237.17C3.59778 236.183 4.71084 234.85 6.11478 233.256C8.9163 230.075 12.7967 225.945 17.0752 221.641ZM82.3659 319.399L68.6984 305.64L100.119 274.178C109.162 265.122 117.388 256.662 123.358 250.324C126.341 247.158 128.773 244.508 130.465 242.574C131.307 241.61 131.987 240.801 132.464 240.184C132.699 239.88 132.913 239.587 133.076 239.327C133.156 239.199 133.25 239.04 133.33 238.865C133.381 238.754 133.558 238.37 133.558 237.876C133.558 237.382 133.382 236.999 133.331 236.888C133.25 236.714 133.156 236.553 133.076 236.424C132.912 236.165 132.699 235.872 132.464 235.568C131.987 234.95 131.307 234.141 130.464 233.178C128.772 231.243 126.34 228.593 123.357 225.426C117.386 219.088 109.16 210.627 100.117 201.572L68.697 170.108L83.3953 155.323L98.0843 140.547L146.762 189.194L195.442 237.846L147.82 285.498C134.336 298.991 121.847 311.252 112.59 320.137C107.96 324.581 104.147 328.171 101.427 330.646C100.063 331.886 98.9914 332.829 98.2352 333.456C98.1406 333.535 98.0525 333.607 97.9708 333.673C97.7876 333.545 97.5745 333.39 97.3309 333.205C96.3726 332.478 95.0821 331.4 93.5411 330.038C90.4673 327.32 86.4916 323.554 82.3659 319.399Z" fill="white"/>
</svg>
